{
  "query": "SELECT id, title, status, progressPercent, progressStep, errorMessage FROM videos WHERE status IN ('failed', 'generating_visuals', 'pending') ORDER BY id DESC LIMIT 15;",
  "command": "mysql --batch --raw --column-names --default-character-set=utf8mb4 --host gateway04.us-east-1.prod.aws.tidbcloud.com --port 4000 --user 357oVLGrrfEVroP.92f7c3f84fd5 --database B9GyrhcpQX4Q32cZzpFMG9 --execute SELECT id, title, status, progressPercent, progressStep, errorMessage FROM videos WHERE status IN ('failed', 'generating_visuals', 'pending') ORDER BY id DESC LIMIT 15;",
  "rows": [
    {
      "id": "510001",
      "title": "The Wildest Kylie Jenner Rumor: Unpacking the Truth",
      "status": "generating_visuals",
      "progressPercent": "63",
      "progressStep": "Composing scenes... (2/15 done)",
      "errorMessage": "Command failed: ffmpeg -y -i \"/tmp/fastvid_510001_1778676784827/scene_0_pexels_2.mp4\" -i \"/tmp/fastvid_510001_1778676784827/scene_0_audio.mp3\" -t 20  -c:v libx264 -preset slow -crf 18 -c:a aac -b:a 320k -pix_fmt yuv420p \"/tmp/fastvid_510001_1778676784827/scene_0_composed.mp4\""
    },
    {
      "id": "480001",
      "title": "NULL",
      "status": "pending",
      "progressPercent": "0",
      "progressStep": "NULL",
      "errorMessage": "NULL"
    },
    {
      "id": "450001",
      "title": "NULL",
      "status": "pending",
      "progressPercent": "0",
      "progressStep": "NULL",
      "errorMessage": "NULL"
    },
    {
      "id": "420001",
      "title": "NULL",
      "status": "pending",
      "progressPercent": "0",
      "progressStep": "NULL",
      "errorMessage": "NULL"
    },
    {
      "id": "360001",
      "title": "Top 5 Most Incredible Natural Phenomena on Earth",
      "status": "failed",
      "progressPercent": "43",
      "progressStep": "Generating AI visuals + fetching stock clips...",
      "errorMessage": "Pipeline stuck - expired by admin"
    },
    {
      "id": "330001",
      "title": "Cosmic Revelations: The Top 5 Space Discoveries of 2024",
      "status": "failed",
      "progressPercent": "0",
      "progressStep": "Generation failed",
      "errorMessage": "Command failed: /usr/bin/ffmpeg -y -i \"/tmp/fastvid_330001_1778092150466/fastvid_330001_concat.mp4\" -i \"/tmp/fastvid_330001_1778092150466/bg_music.mp3\" -filter_complex \"[0:a]volume=1.0[voice];[1:a]volume=0.10[music];[voice][music]amix=inputs=2:duration=first:dropout_transition=2[aout]\" -map \"0:v\" -map \"[aout]\" -c:v copy -c:a aac -b:a 64k -movflags +faststart \"/tmp/fastvid_330001_1778092150466/fastvid_330001_final.mp4\""
    },
    {
      "id": "270003",
      "title": "Unleashing Giants: The Top 10 Most Powerful Engines Ever Built",
      "status": "failed",
      "progressPercent": "37",
      "progressStep": "Timed out",
      "errorMessage": "Pipeline timed out after 35 minutes"
    },
    {
      "id": "270002",
      "title": "Unveiling Opulence: The Top 10 Most Expensive Cars in the World",
      "status": "failed",
      "progressPercent": "0",
      "progressStep": "Generation failed",
      "errorMessage": "Command failed: /usr/src/app/node_modules/.pnpm/ffmpeg-static@5.3.0/node_modules/ffmpeg-static/ffmpeg -y -i \"/tmp/fastvid_270002_1778012711931/scene_1_fallback.mp4\" -i \"/tmp/fastvid_270002_1778012711931/scene_1_audio.mp3\" -t 9 -c:v libx264 -preset ultrafast -crf 28 -c:a aac -b:a 64k -pix_fmt yuv420p \"/tmp/fastvid_270002_1778012711931/scene_1_composed.mp4\""
    },
    {
      "id": "270001",
      "title": "Unleashed Speed: The World's 10 Fastest Production Cars",
      "status": "failed",
      "progressPercent": "0",
      "progressStep": "Generation failed",
      "errorMessage": "Command failed: /usr/src/app/node_modules/.pnpm/ffmpeg-static@5.3.0/node_modules/ffmpeg-static/ffmpeg -y -i \"/tmp/fastvid_270001_1778011768544/scene_1_fallback.mp4\" -i \"/tmp/fastvid_270001_1778011768544/scene_1_audio.mp3\" -t 13 -c:v libx264 -preset ultrafast -crf 28 -c:a aac -b:a 64k -pix_fmt yuv420p \"/tmp/fastvid_270001_1778011768544/scene_1_composed.mp4\""
    },
    {
      "id": "240006",
      "title": "Unleashed Speed: The Top 5 Fastest Cars in the World",
      "status": "failed",
      "progressPercent": "43",
      "progressStep": "Timed out",
      "errorMessage": "Pipeline timed out after 35 minutes"
    },
    {
      "id": "240005",
      "title": "NULL",
      "status": "failed",
      "progressPercent": "0",
      "progressStep": "Generation failed",
      "errorMessage": "No approved script found"
    },
    {
      "id": "240004",
      "title": "NULL",
      "status": "failed",
      "progressPercent": "0",
      "progressStep": "Generation failed",
      "errorMessage": "No approved script found"
    },
    {
      "id": "240003",
      "title": "NULL",
      "status": "failed",
      "progressPercent": "0",
      "progressStep": "Generation failed",
      "errorMessage": "No approved script found"
    },
    {
      "id": "240002",
      "title": "NULL",
      "status": "failed",
      "progressPercent": "0",
      "progressStep": "Generation failed",
      "errorMessage": "No approved script found"
    },
    {
      "id": "240001",
      "title": "NULL",
      "status": "failed",
      "progressPercent": "0",
      "progressStep": "Generation failed",
      "errorMessage": "No approved script found"
    }
  ],
  "messages": [
    "ffmpeg version 4.4.2-0ubuntu0.22.04.1 Copyright (c) 2000-2021 the FFmpeg developers",
    "  built with gcc 11 (Ubuntu 11.2.0-19ubuntu1)",
    "  configuration: --prefix=/usr --extra-version=0ubuntu0.22.04.1 --toolchain=hardened --libdir=/usr/lib/x86_64-linux-gnu --incdir=/usr/include/x86_64-linux-gnu --arch=amd64 --enable-gpl --disable-stripping --enable-gnutls --enable-ladspa --enable-libaom --enable-libass --enable-libbluray --enable-libbs2b --enable-libcaca --enable-libcdio --enable-libcodec2 --enable-libdav1d --enable-libflite --enable-libfontconfig --enable-libfreetype --enable-libfribidi --enable-libgme --enable-libgsm --enable-libjack --enable-libmp3lame --enable-libmysofa --enable-libopenjpeg --enable-libopenmpt --enable-libopus --enable-libpulse --enable-librabbitmq --enable-librubberband --enable-libshine --enable-libsnappy --enable-libsoxr --enable-libspeex --enable-libsrt --enable-libssh --enable-libtheora --enable-libtwolame --enable-libvidstab --enable-libvorbis --enable-libvpx --enable-libwebp --enable-libx265 --enable-libxml2 --enable-libxvid --enable-libzimg --enable-libzmq --enable-libzvbi --enable-lv2 --enable-omx --enable-openal --enable-opencl --enable-opengl --enable-sdl2 --enable-pocketsphinx --enable-librsvg --enable-libmfx --enable-libdc1394 --enable-libdrm --enable-libiec61883 --enable-chromaprint --enable-frei0r --enable-libx264 --enable-shared",
    "  libavutil      56. 70.100 / 56. 70.100",
    "  libavcodec     58.134.100 / 58.134.100",
    "  libavformat    58. 76.100 / 58. 76.100",
    "  libavdevice    58. 13.100 / 58. 13.100",
    "  libavfilter     7.110.100 /  7.110.100",
    "  libswscale      5.  9.100 /  5.  9.100",
    "  libswresample   3.  9.100 /  3.  9.100",
    "  libpostproc    55.  9.100 / 55.  9.100",
    "[mov,mp4,m4a,3gp,3g2,mj2 @ 0x55b118bf6440] moov atom not found",
    "/tmp/fastvid_510001_1778676784827/scene_0_pexels_2.mp4: Invalid data found when processing input",
    "ffmpeg version 4.4.2-0ubuntu0.22.04.1 Copyright (c) 2000-2021 the FFmpeg developers",
    "  built with gcc 11 (Ubuntu 11.2.0-19ubuntu1)",
    "  configuration: --prefix=/usr --extra-version=0ubuntu0.22.04.1 --toolchain=hardened --libdir=/usr/lib/x86_64-linux-gnu --incdir=/usr/include/x86_64-linux-gnu --arch=amd64 --enable-gpl --disable-stripping --enable-gnutls --enable-ladspa --enable-libaom --enable-libass --enable-libbluray --enable-libbs2b --enable-libcaca --enable-libcdio --enable-libcodec2 --enable-libdav1d --enable-libflite --enable-libfontconfig --enable-libfreetype --enable-libfribidi --enable-libgme --enable-libgsm --enable-libjack --enable-libmp3lame --enable-libmysofa --enable-libopenjpeg --enable-libopenmpt --enable-libopus --enable-libpulse --enable-librabbitmq --enable-librubberband --enable-libshine --enable-libsnappy --enable-libsoxr --enable-libspeex --enable-libsrt --enable-libssh --enable-libtheora --enable-libtwolame --enable-libvidstab --enable-libvorbis --enable-libvpx --enable-libwebp --enable-libx265 --enable-libxml2 --enable-libxvid --enable-libzimg --enable-libzmq --enable-libzvbi --enable-lv2 --enable-omx --enable-openal --enable-opencl --enable-opengl --enable-sdl2 --enable-pocketsphinx --enable-librsvg --enable-libmfx --enable-libdc1394 --enable-libdrm --enable-libiec61883 --enable-chromaprint --enable-frei0r --enable-libx264 --enable-shared",
    "  libavutil      56. 70.100 / 56. 70.100",
    "  libavcodec     58.134.100 / 58.134.100",
    "  libavformat    58. 76.100 / 58. 76.100",
    "  libavdevice    58. 13.100 / 58. 13.100",
    "  libavfilter     7.110.100 /  7.110.100",
    "  libswscale      5.  9.100 /  5.  9.100",
    "  libswresample   3.  9.100 /  3.  9.100",
    "  libpostproc    55.  9.100 / 55.  9.100",
    "Input #0, mov,mp4,m4a,3gp,3g2,mj2, from '/tmp/fastvid_330001_1778092150466/fastvid_330001_concat.mp4':",
    "  Metadata:",
    "    major_brand     : isom",
    "    minor_version   : 512",
    "    compatible_brands: isomiso2avc1mp41",
    "    encoder         : Lavf58.76.100",
    "  Duration: 00:02:23.48, start: 0.000000, bitrate: 694 kb/s",
    "  Stream #0:0(und): Video: h264 (Constrained Baseline) (avc1 / 0x31637661), yuv420p, 1280x720, 693 kb/s, 25 fps, 25 tbr, 12800 tbn, 50 tbc (default)",
    "    Metadata:",
    "      handler_name    : VideoHandler",
    "      vendor_id       : [0][0][0][0]",
    "Input #1, mp3, from '/tmp/fastvid_330001_1778092150466/bg_music.mp3':",
    "  Metadata:",
    "    encoder         : Lavf58.76.100",
    "  Duration: 00:02:29.11, start: 0.025057, bitrate: 64 kb/s",
    "  Stream #1:0: Audio: mp3, 44100 Hz, mono, fltp, 64 kb/s",
    "Stream specifier ':a' in filtergraph description [0:a]volume=1.0[voice];[1:a]volume=0.10[music];[voice][music]amix=inputs=2:duration=first:dropout_transition=2[aout] matches no streams.",
    "/bin/sh: 1: /usr/src/app/node_modules/.pnpm/ffmpeg-static@5.3.0/node_modules/ffmpeg-static/ffmpeg: not found",
    "/bin/sh: 1: /usr/src/app/node_modules/.pnpm/ffmpeg-static@5.3.0/node_modules/ffmpeg-static/ffmpeg: not found"
  ],
  "stdout": "id\ttitle\tstatus\tprogressPercent\tprogressStep\terrorMessage\n510001\tThe Wildest Kylie Jenner Rumor: Unpacking the Truth\tgenerating_visuals\t63\tComposing scenes... (2/15 done)\tCommand failed: ffmpeg -y -i \"/tmp/fastvid_510001_1778676784827/scene_0_pexels_2.mp4\" -i \"/tmp/fastvid_510001_1778676784827/scene_0_audio.mp3\" -t 20  -c:v libx264 -preset slow -crf 18 -c:a aac -b:a 320k -pix_fmt yuv420p \"/tmp/fastvid_510001_1778676784827/scene_0_composed.mp4\"\nffmpeg version 4.4.2-0ubuntu0.22.04.1 Copyright (c) 2000-2021 the FFmpeg developers\n  built with gcc 11 (Ubuntu 11.2.0-19ubuntu1)\n  configuration: --prefix=/usr --extra-version=0ubuntu0.22.04.1 --toolchain=hardened --libdir=/usr/lib/x86_64-linux-gnu --incdir=/usr/include/x86_64-linux-gnu --arch=amd64 --enable-gpl --disable-stripping --enable-gnutls --enable-ladspa --enable-libaom --enable-libass --enable-libbluray --enable-libbs2b --enable-libcaca --enable-libcdio --enable-libcodec2 --enable-libdav1d --enable-libflite --enable-libfontconfig --enable-libfreetype --enable-libfribidi --enable-libgme --enable-libgsm --enable-libjack --enable-libmp3lame --enable-libmysofa --enable-libopenjpeg --enable-libopenmpt --enable-libopus --enable-libpulse --enable-librabbitmq --enable-librubberband --enable-libshine --enable-libsnappy --enable-libsoxr --enable-libspeex --enable-libsrt --enable-libssh --enable-libtheora --enable-libtwolame --enable-libvidstab --enable-libvorbis --enable-libvpx --enable-libwebp --enable-libx265 --enable-libxml2 --enable-libxvid --enable-libzimg --enable-libzmq --enable-libzvbi --enable-lv2 --enable-omx --enable-openal --enable-opencl --enable-opengl --enable-sdl2 --enable-pocketsphinx --enable-librsvg --enable-libmfx --enable-libdc1394 --enable-libdrm --enable-libiec61883 --enable-chromaprint --enable-frei0r --enable-libx264 --enable-shared\n  libavutil      56. 70.100 / 56. 70.100\n  libavcodec     58.134.100 / 58.134.100\n  libavformat    58. 76.100 / 58. 76.100\n  libavdevice    58. 13.100 / 58. 13.100\n  libavfilter     7.110.100 /  7.110.100\n  libswscale      5.  9.100 /  5.  9.100\n  libswresample   3.  9.100 /  3.  9.100\n  libpostproc    55.  9.100 / 55.  9.100\n[mov,mp4,m4a,3gp,3g2,mj2 @ 0x55b118bf6440] moov atom not found\n/tmp/fastvid_510001_1778676784827/scene_0_pexels_2.mp4: Invalid data found when processing input\n\n480001\tNULL\tpending\t0\tNULL\tNULL\n450001\tNULL\tpending\t0\tNULL\tNULL\n420001\tNULL\tpending\t0\tNULL\tNULL\n360001\tTop 5 Most Incredible Natural Phenomena on Earth\tfailed\t43\tGenerating AI visuals + fetching stock clips...\tPipeline stuck - expired by admin\n330001\tCosmic Revelations: The Top 5 Space Discoveries of 2024\tfailed\t0\tGeneration failed\tCommand failed: /usr/bin/ffmpeg -y -i \"/tmp/fastvid_330001_1778092150466/fastvid_330001_concat.mp4\" -i \"/tmp/fastvid_330001_1778092150466/bg_music.mp3\" -filter_complex \"[0:a]volume=1.0[voice];[1:a]volume=0.10[music];[voice][music]amix=inputs=2:duration=first:dropout_transition=2[aout]\" -map \"0:v\" -map \"[aout]\" -c:v copy -c:a aac -b:a 64k -movflags +faststart \"/tmp/fastvid_330001_1778092150466/fastvid_330001_final.mp4\"\nffmpeg version 4.4.2-0ubuntu0.22.04.1 Copyright (c) 2000-2021 the FFmpeg developers\n  built with gcc 11 (Ubuntu 11.2.0-19ubuntu1)\n  configuration: --prefix=/usr --extra-version=0ubuntu0.22.04.1 --toolchain=hardened --libdir=/usr/lib/x86_64-linux-gnu --incdir=/usr/include/x86_64-linux-gnu --arch=amd64 --enable-gpl --disable-stripping --enable-gnutls --enable-ladspa --enable-libaom --enable-libass --enable-libbluray --enable-libbs2b --enable-libcaca --enable-libcdio --enable-libcodec2 --enable-libdav1d --enable-libflite --enable-libfontconfig --enable-libfreetype --enable-libfribidi --enable-libgme --enable-libgsm --enable-libjack --enable-libmp3lame --enable-libmysofa --enable-libopenjpeg --enable-libopenmpt --enable-libopus --enable-libpulse --enable-librabbitmq --enable-librubberband --enable-libshine --enable-libsnappy --enable-libsoxr --enable-libspeex --enable-libsrt --enable-libssh --enable-libtheora --enable-libtwolame --enable-libvidstab --enable-libvorbis --enable-libvpx --enable-libwebp --enable-libx265 --enable-libxml2 --enable-libxvid --enable-libzimg --enable-libzmq --enable-libzvbi --enable-lv2 --enable-omx --enable-openal --enable-opencl --enable-opengl --enable-sdl2 --enable-pocketsphinx --enable-librsvg --enable-libmfx --enable-libdc1394 --enable-libdrm --enable-libiec61883 --enable-chromaprint --enable-frei0r --enable-libx264 --enable-shared\n  libavutil      56. 70.100 / 56. 70.100\n  libavcodec     58.134.100 / 58.134.100\n  libavformat    58. 76.100 / 58. 76.100\n  libavdevice    58. 13.100 / 58. 13.100\n  libavfilter     7.110.100 /  7.110.100\n  libswscale      5.  9.100 /  5.  9.100\n  libswresample   3.  9.100 /  3.  9.100\n  libpostproc    55.  9.100 / 55.  9.100\nInput #0, mov,mp4,m4a,3gp,3g2,mj2, from '/tmp/fastvid_330001_1778092150466/fastvid_330001_concat.mp4':\n  Metadata:\n    major_brand     : isom\n    minor_version   : 512\n    compatible_brands: isomiso2avc1mp41\n    encoder         : Lavf58.76.100\n  Duration: 00:02:23.48, start: 0.000000, bitrate: 694 kb/s\n  Stream #0:0(und): Video: h264 (Constrained Baseline) (avc1 / 0x31637661), yuv420p, 1280x720, 693 kb/s, 25 fps, 25 tbr, 12800 tbn, 50 tbc (default)\n    Metadata:\n      handler_name    : VideoHandler\n      vendor_id       : [0][0][0][0]\nInput #1, mp3, from '/tmp/fastvid_330001_1778092150466/bg_music.mp3':\n  Metadata:\n    encoder         : Lavf58.76.100\n  Duration: 00:02:29.11, start: 0.025057, bitrate: 64 kb/s\n  Stream #1:0: Audio: mp3, 44100 Hz, mono, fltp, 64 kb/s\nStream specifier ':a' in filtergraph description [0:a]volume=1.0[voice];[1:a]volume=0.10[music];[voice][music]amix=inputs=2:duration=first:dropout_transition=2[aout] matches no streams.\n\n270003\tUnleashing Giants: The Top 10 Most Powerful Engines Ever Built\tfailed\t37\tTimed out\tPipeline timed out after 35 minutes\n270002\tUnveiling Opulence: The Top 10 Most Expensive Cars in the World\tfailed\t0\tGeneration failed\tCommand failed: /usr/src/app/node_modules/.pnpm/ffmpeg-static@5.3.0/node_modules/ffmpeg-static/ffmpeg -y -i \"/tmp/fastvid_270002_1778012711931/scene_1_fallback.mp4\" -i \"/tmp/fastvid_270002_1778012711931/scene_1_audio.mp3\" -t 9 -c:v libx264 -preset ultrafast -crf 28 -c:a aac -b:a 64k -pix_fmt yuv420p \"/tmp/fastvid_270002_1778012711931/scene_1_composed.mp4\"\n/bin/sh: 1: /usr/src/app/node_modules/.pnpm/ffmpeg-static@5.3.0/node_modules/ffmpeg-static/ffmpeg: not found\n\n270001\tUnleashed Speed: The World's 10 Fastest Production Cars\tfailed\t0\tGeneration failed\tCommand failed: /usr/src/app/node_modules/.pnpm/ffmpeg-static@5.3.0/node_modules/ffmpeg-static/ffmpeg -y -i \"/tmp/fastvid_270001_1778011768544/scene_1_fallback.mp4\" -i \"/tmp/fastvid_270001_1778011768544/scene_1_audio.mp3\" -t 13 -c:v libx264 -preset ultrafast -crf 28 -c:a aac -b:a 64k -pix_fmt yuv420p \"/tmp/fastvid_270001_1778011768544/scene_1_composed.mp4\"\n/bin/sh: 1: /usr/src/app/node_modules/.pnpm/ffmpeg-static@5.3.0/node_modules/ffmpeg-static/ffmpeg: not found\n\n240006\tUnleashed Speed: The Top 5 Fastest Cars in the World\tfailed\t43\tTimed out\tPipeline timed out after 35 minutes\n240005\tNULL\tfailed\t0\tGeneration failed\tNo approved script found\n240004\tNULL\tfailed\t0\tGeneration failed\tNo approved script found\n240003\tNULL\tfailed\t0\tGeneration failed\tNo approved script found\n240002\tNULL\tfailed\t0\tGeneration failed\tNo approved script found\n240001\tNULL\tfailed\t0\tGeneration failed\tNo approved script found\n",
  "stderr": "",
  "execution_time_ms": 271
}